<?xml version="1.0" encoding="utf-8"?>
<!-- Generator: Adobe Illustrator 16.0.0, SVG Export Plug-In . SVG Version: 6.00 Build 0)  -->
<!DOCTYPE svg PUBLIC "-//W3C//DTD SVG 1.1//EN" "http://www.w3.org/Graphics/SVG/1.1/DTD/svg11.dtd">
<svg version="1.1" id="Layer_1" xmlns="http://www.w3.org/2000/svg" xmlns:xlink="http://www.w3.org/1999/xlink" x="0px" y="0px"
	 width="612px" height="792px" viewBox="0 0 612 792" enable-background="new 0 0 612 792" xml:space="preserve">
<path fill="#37CCA4" d="M546.429,90H65.571C29.357,90,0,119.357,0,155.571v480.857C0,672.644,29.357,702,65.571,702h480.857
	C582.644,702,612,672.644,612,636.429V155.571C612,119.357,582.644,90,546.429,90z M546.429,636.429H65.571V155.571h480.857V636.429
	z M497.436,306.216L261.667,540.093c-6.427,6.376-16.807,6.335-23.182-0.093L114.471,414.983
	c-6.375-6.428-6.334-16.808,0.094-23.184l31.036-30.786c6.427-6.375,16.807-6.334,23.182,0.094l81.68,82.342l193.097-191.545
	c6.428-6.375,16.807-6.334,23.183,0.093l30.785,31.035C503.904,289.461,503.863,299.841,497.436,306.216L497.436,306.216z"/>
</svg>
