<?xml version="1.0" encoding="utf-8"?>
<!-- Generator: Adobe Illustrator 16.0.0, SVG Export Plug-In . SVG Version: 6.00 Build 0)  -->
<!DOCTYPE svg PUBLIC "-//W3C//DTD SVG 1.1//EN" "http://www.w3.org/Graphics/SVG/1.1/DTD/svg11.dtd">
<svg version="1.1" id="Layer_1" xmlns="http://www.w3.org/2000/svg" xmlns:xlink="http://www.w3.org/1999/xlink" x="0px" y="0px"
	 width="953px" height="424px" viewBox="0 0 953 424" enable-background="new 0 0 953 424" xml:space="preserve">
<path fill="#999999" d="M652.063,197.094H491.406V36.438c0-5.466-4.472-9.938-9.938-9.938h-9.938c-5.466,0-9.938,4.472-9.938,9.938
	v160.656H300.938c-5.466,0-9.938,4.472-9.938,9.938v9.938c0,5.466,4.472,9.938,9.938,9.938h160.656v160.656
	c0,5.466,4.472,9.938,9.938,9.938h9.938c5.466,0,9.938-4.472,9.938-9.938V226.906h160.656c5.466,0,9.938-4.472,9.938-9.938v-9.938
	C662,201.565,657.528,197.094,652.063,197.094z"/>
</svg>
