<?xml version="1.0" encoding="utf-8"?>
<!-- Generator: Adobe Illustrator 22.0.1, SVG Export Plug-In . SVG Version: 6.00 Build 0)  -->
<svg version="1.1" id="Layer_1" xmlns="http://www.w3.org/2000/svg" xmlns:xlink="http://www.w3.org/1999/xlink" x="0px" y="0px"
	 viewBox="0 0 687.5 792" style="enable-background:new 0 0 687.5 792;" xml:space="preserve">
<style type="text/css">
	.st0{fill:#999999;}
</style>
<path class="st0" d="M379.7,746.2L632.9,493c10.7-10.7,16.8-25.3,16.8-40.6v-244c0-31.7-25.7-57.3-57.3-57.3l-244-0.1
	c-15.3,0-29.8,6.1-40.6,16.8L54.5,421.1c-22.4,22.4-22.4,58.8,0,81.2l244,244C321,768.6,357.3,768.6,379.7,746.2L379.7,746.2z
	 M325.6,719.2l-244-244c-7.5-7.5-7.4-19.6,0-27l253.3-253.3c3.6-3.6,8.4-5.6,13.5-5.6h244c10.6,0,19.2,8.6,19.1,19.1v244
	c0,5.1-2,9.9-5.6,13.5L352.6,719.2C345.2,726.6,333.1,726.7,325.6,719.2L325.6,719.2z M501.6,323.1c0,13.2-10.7,23.9-23.9,23.9
	c-13.2,0-23.9-10.7-23.9-23.9s10.7-23.9,23.9-23.9C490.8,299.2,501.6,310,501.6,323.1 M535,323.2c0-31.7-25.7-57.3-57.3-57.3
	s-57.3,25.7-57.3,57.3s25.7,57.3,57.3,57.3S535,354.9,535,323.2z"/>
</svg>
